<svg xmlns="http://www.w3.org/2000/svg" version="1.1" xmlns:xlink="http://www.w3.org/1999/xlink" xmlns:svgjs="http://svgjs.dev/svgjs" width="1500" height="1626" viewBox="0 0 1500 1626"><g transform="matrix(1,0,0,1,2.5673076923072813,-2.3006170212762527)"><svg viewBox="0 0 130 141" data-background-color="#dbefed" preserveAspectRatio="xMidYMid meet" height="1626" width="1500" xmlns="http://www.w3.org/2000/svg" xmlns:xlink="http://www.w3.org/1999/xlink"><g id="tight-bounds" transform="matrix(1,0,0,1,-0.22249999999996817,0.19949999999997203)"><svg viewBox="0 0 130.44457147579692 140.60052000000002" height="140.60052000000002" width="130.44457147579692"><g><svg viewBox="0 0 130.44457147579692 140.60052000000002" height="140.60052000000002" width="130.44457147579692"><g><svg viewBox="0 0 130.44457147579692 140.60052000000002" height="140.60052000000002" width="130.44457147579692"><g><path d="M0 140.601v-140.601h130.445v140.601z" fill="#cb1106" stroke="transparent" stroke-width="0" rx="0%" data-fill-palette-color="tertiary"></path><path d="M3.283 137.317v-134.034h123.878v134.034z" fill="#dbefed" stroke="transparent" stroke-width="0" rx="0%" data-fill-palette-color="quaternary"></path><path d="M9.85 130.751v-120.901h110.745v120.901z" fill="#cb1106" stroke="transparent" stroke-width="0" data-fill-palette-color="tertiary"></path></g><g transform="matrix(1,0,0,1,19.69973999999999,19.69974)" id="textblocktransform"><svg viewBox="0 0 91.04509147579694 101.20104000000003" height="101.20104000000003" width="91.04509147579694" id="textblock"><g><svg viewBox="0 0 91.04509147579694 101.20104000000003" height="101.20104000000003" width="91.04509147579694"><g transform="matrix(1,0,0,1,0,0)"><svg width="91.04509147579694" viewBox="0.55 -33.3 38.1 42.349999999999994" height="101.20104000000003" data-palette-color="#dbefed"><path d="M0.55-0.6L0.55-0.6Q0.55-5 2.48-8.2 4.4-11.4 6.5-11.4L6.5-11.4Q7.05-11.4 7.6-11.05L7.6-11.05 7.75-10.7Q7.1-9.45 6.95-7.55L6.95-7.55 6.65-7.35Q6.45-7.45 5.9-7.45 5.35-7.45 4.28-6.85 3.2-6.25 2.6-5.65L2.6-5.65Q2.25-4.95 2.25-4.05L2.25-4.05Q2.25-1.7 5.43-0.03 8.6 1.65 11.55 1.65L11.55 1.65Q17.7 1.65 17.7-5.35L17.7-5.35Q17.7-8 12.65-12L12.65-12Q10.55-13.7 8.45-15.4L8.45-15.4Q3.4-19.4 3.4-22.35L3.4-22.35Q3.4-25.85 6.55-28.88 9.7-31.9 13.7-33.3L13.7-33.3Q18-33.3 21.85-32.45L21.85-32.45 21.85-31.45Q19.25-29.05 18.95-24.05L18.95-24.05 17.7-24.05Q17.7-26.7 17.45-28.7L17.45-28.7Q15.3-29.7 12.78-29.7 10.25-29.7 8.5-28.63 6.75-27.55 6.75-25.9 6.75-24.25 8.22-22.58 9.7-20.9 11.8-19.33 13.9-17.75 15.98-16.13 18.05-14.5 19.53-12.63 21-10.75 21-9L21-9Q21-4 18.25-0.1 15.5 3.8 10.75 5.75L10.75 5.75Q4.5 5.1 0.75 2.25L0.75 2.25Q0.55 0.85 0.55-0.6ZM33.6-17.75L33.6-17.75 33.6-14.8Q33.6-5.55 34-1.65L34-1.65Q30.65 5.1 21.65 9.05L21.65 9.05 21.05 8Q25.8 4.75 27.77 1.28 29.75-2.2 29.75-7.7L29.75-7.7 29.75-17.75Q29.75-25.3 29.3-29.8L29.3-29.8Q23.4-29.8 21.75-28.2L21.75-28.2Q21.4-27.5 21.4-26 21.4-24.5 21.9-23.95L21.9-23.95 21.85-23.6Q20.6-22.85 19.35-21.5L19.35-21.5Q18.75-21.55 18.37-22 18-22.45 18-23.05L18-23.05Q18-25.5 20.95-28.9 23.9-32.3 26.45-33.2L26.45-33.2Q26.85-33.2 30.05-32.88 33.25-32.55 35.05-32.55 36.85-32.55 38.45-32.85L38.45-32.85 38.65-31.6Q36.7-30.85 34.2-30.25L34.2-30.25Q33.6-24.85 33.6-17.75Z" opacity="1" transform="matrix(1,0,0,1,0,0)" fill="#dbefed" class="wordmark-text-0" data-fill-palette-color="quaternary" id="text-0"></path></svg></g></svg></g></svg></g></svg></g><g></g></svg></g><defs></defs></svg><rect width="130.44457147579692" height="140.60052000000002" fill="none" stroke="none" visibility="hidden"></rect></g></svg></g></svg>